<?xml version="1.0" encoding="UTF-8"?>
<svg version="1.1" xmlns="http://www.w3.org/2000/svg" width="512" height="512">
<path d="M0 0 C5.54898774 3.8713868 8.48939456 8.26513968 9.6875 14.875 C9.90852114 18.19377052 9.878224 21.48838211 9.8125 24.8125 C9.80347656 25.68712891 9.79445313 26.56175781 9.78515625 27.46289062 C9.7617957 29.60038064 9.72593247 31.73772786 9.6875 33.875 C10.986875 33.9575 12.28625 34.04 13.625 34.125 C43.29711825 37.18009821 71.34174906 51.61509085 93.6875 70.875 C94.78191406 71.78572266 94.78191406 71.78572266 95.8984375 72.71484375 C100.6580211 76.73587128 104.73477338 81.06571831 108.6875 85.875 C109.51121094 86.84953125 110.33492188 87.8240625 111.18359375 88.828125 C129.87097095 111.37756016 142.37929837 139.55043501 144.6875 168.875 C145.95464844 168.84019531 147.22179687 168.80539063 148.52734375 168.76953125 C150.22654911 168.74136763 151.92576898 168.71407025 153.625 168.6875 C154.45580078 168.66236328 155.28660156 168.63722656 156.14257812 168.61132812 C162.88684663 168.53260126 169.41933211 169.26993863 174.84375 173.59375 C175.2871875 174.1815625 175.730625 174.769375 176.1875 175.375 C176.88359375 176.25671875 176.88359375 176.25671875 177.59375 177.15625 C180.46620155 181.67010244 180.12194779 186.72598917 179.6875 191.875 C177.92784858 197.05619584 175.15934069 199.77911029 170.6875 202.875 C164.96437038 204.97855842 159.80584093 205.11973526 153.75 205 C152.87537109 204.99097656 152.00074219 204.98195313 151.09960938 204.97265625 C148.96211936 204.9492957 146.82477214 204.91343247 144.6875 204.875 C144.63924072 205.48811035 144.59098145 206.1012207 144.54125977 206.73291016 C141.44468235 241.9350443 123.66838881 273.53464681 98.6875 297.875 C98.17574219 298.431875 97.66398437 298.98875 97.13671875 299.5625 C75.75881007 322.26794476 44.06180535 335.35689267 13.6875 339.875 C12.3675 339.875 11.0475 339.875 9.6875 339.875 C9.72230469 341.14214844 9.75710938 342.40929687 9.79296875 343.71484375 C9.82113237 345.41404911 9.84842975 347.11326898 9.875 348.8125 C9.90013672 349.64330078 9.92527344 350.47410156 9.95117188 351.33007812 C10.02989874 358.07434663 9.29256137 364.60683211 4.96875 370.03125 C4.3809375 370.4746875 3.793125 370.918125 3.1875 371.375 C2.30578125 372.07109375 2.30578125 372.07109375 1.40625 372.78125 C-3.10760244 375.65370155 -8.16348917 375.30944779 -13.3125 374.875 C-18.49369584 373.11534858 -21.21661029 370.34684069 -24.3125 365.875 C-26.41605842 360.15187038 -26.55723526 354.99334093 -26.4375 348.9375 C-26.42847656 348.06287109 -26.41945312 347.18824219 -26.41015625 346.28710938 C-26.3867957 344.14961936 -26.35093247 342.01227214 -26.3125 339.875 C-26.92561035 339.82674072 -27.5387207 339.77848145 -28.17041016 339.72875977 C-63.3725443 336.63218235 -94.97214681 318.85588881 -119.3125 293.875 C-119.869375 293.36324219 -120.42625 292.85148437 -121 292.32421875 C-143.70544476 270.94631007 -156.79439267 239.24930535 -161.3125 208.875 C-161.3125 207.555 -161.3125 206.235 -161.3125 204.875 C-162.57964844 204.90980469 -163.84679687 204.94460938 -165.15234375 204.98046875 C-166.85154911 205.00863237 -168.55076898 205.03592975 -170.25 205.0625 C-171.08080078 205.08763672 -171.91160156 205.11277344 -172.76757812 205.13867188 C-179.51184663 205.21739874 -186.04433211 204.48006137 -191.46875 200.15625 C-191.9121875 199.5684375 -192.355625 198.980625 -192.8125 198.375 C-193.2765625 197.7871875 -193.740625 197.199375 -194.21875 196.59375 C-197.09120155 192.07989756 -196.74694779 187.02401083 -196.3125 181.875 C-194.55284858 176.69380416 -191.78434069 173.97088971 -187.3125 170.875 C-181.58937038 168.77144158 -176.43084093 168.63026474 -170.375 168.75 C-169.50037109 168.75902344 -168.62574219 168.76804688 -167.72460938 168.77734375 C-165.58711936 168.8007043 -163.44977214 168.83656753 -161.3125 168.875 C-161.26424072 168.26188965 -161.21598145 167.6487793 -161.16625977 167.01708984 C-158.39562805 135.52033191 -143.68539606 106.09063127 -122.35546875 83.12890625 C-120.9369739 81.56395113 -119.57651964 79.94519275 -118.265625 78.2890625 C-115.32930339 74.65976899 -111.90547664 71.83833925 -108.3125 68.875 C-106.95511719 67.74384766 -106.95511719 67.74384766 -105.5703125 66.58984375 C-84.27905577 49.49724452 -54.30649185 33.875 -26.3125 33.875 C-26.34730469 32.60785156 -26.38210937 31.34070313 -26.41796875 30.03515625 C-26.44613237 28.33595089 -26.47342975 26.63673102 -26.5 24.9375 C-26.52513672 24.10669922 -26.55027344 23.27589844 -26.57617188 22.41992188 C-26.65489874 15.67565337 -25.91756137 9.14316789 -21.59375 3.71875 C-21.0059375 3.2753125 -20.418125 2.831875 -19.8125 2.375 C-19.2246875 1.9109375 -18.636875 1.446875 -18.03125 0.96875 C-12.73321114 -2.40272928 -5.73442844 -1.94754174 0 0 Z M-99.875 98.0625 C-106.23246431 104.42651164 -111.41365111 111.35208763 -116.3125 118.875 C-117.24835938 120.2671875 -117.24835938 120.2671875 -118.203125 121.6875 C-126.45638707 134.77375338 -134.3125 153.17191807 -134.3125 168.875 C-133.08732666 168.88958252 -131.86215332 168.90416504 -130.59985352 168.91918945 C-126.02046661 168.97750298 -121.44155452 169.05473219 -116.86254883 169.13745117 C-114.88704174 169.1705458 -112.91144361 169.19862504 -110.93579102 169.22143555 C-108.08310428 169.25526756 -105.23124035 169.3075957 -102.37890625 169.36328125 C-101.50665909 169.36967117 -100.63441193 169.3760611 -99.73573303 169.38264465 C-93.55133842 169.5283434 -86.54545029 170.06422482 -81.68385315 174.29096985 C-77.49260853 179.13221578 -77.01720108 183.22968281 -77.09765625 189.37109375 C-77.50061712 194.06741947 -79.29008732 196.85258732 -82.5625 200.125 C-88.7422879 204.0575923 -95.06426702 204.19588366 -102.18359375 204.2890625 C-103.56708763 204.31811172 -103.56708763 204.31811172 -104.97853088 204.3477478 C-107.90226211 204.4071612 -110.82603353 204.45377509 -113.75 204.5 C-115.7415529 204.53821502 -117.7330899 204.57726877 -119.72460938 204.6171875 C-124.58710923 204.71283104 -129.44968638 204.79700221 -134.3125 204.875 C-134.16959312 206.28981006 -134.02253196 207.70420081 -133.8737793 209.1184082 C-133.751623 210.29993217 -133.751623 210.29993217 -133.6269989 211.50532532 C-133.14528678 215.134912 -132.18905749 218.56595665 -131.125 222.0625 C-130.79181763 223.16259399 -130.79181763 223.16259399 -130.4519043 224.28491211 C-121.31248127 253.63597049 -101.98140983 278.15965039 -76.3125 294.875 C-74.9203125 295.81085938 -74.9203125 295.81085938 -73.5 296.765625 C-60.43174848 305.00753363 -42.00926348 312.875 -26.3125 312.875 C-26.29791748 311.64982666 -26.28333496 310.42465332 -26.26831055 309.16235352 C-26.20999702 304.58296661 -26.13276781 300.00405452 -26.05004883 295.42504883 C-26.0169542 293.44954174 -25.98887496 291.47394361 -25.96606445 289.49829102 C-25.93223244 286.64560428 -25.8799043 283.79374035 -25.82421875 280.94140625 C-25.81782883 280.06915909 -25.8114389 279.19691193 -25.80485535 278.29823303 C-25.6591566 272.11383842 -25.12327518 265.10795029 -20.89653015 260.24635315 C-16.05528422 256.05510853 -11.95781719 255.57970108 -5.81640625 255.66015625 C-1.12008053 256.06311712 1.66508732 257.85258732 4.9375 261.125 C8.8700923 267.3047879 9.00838366 273.62676702 9.1015625 280.74609375 C9.13061172 282.12958763 9.13061172 282.12958763 9.1602478 283.54103088 C9.2196612 286.46476211 9.26627509 289.38853353 9.3125 292.3125 C9.35071502 294.3040529 9.38976877 296.2955899 9.4296875 298.28710938 C9.52533104 303.14960923 9.60950221 308.01218638 9.6875 312.875 C17.16097208 311.85683934 24.36408149 310.72845816 31.5 308.25 C32.25498779 307.99130127 33.00997559 307.73260254 33.7878418 307.46606445 C52.32210868 300.88913929 67.58505884 290.46869509 81.6875 276.875 C82.40550781 276.22015625 83.12351562 275.5653125 83.86328125 274.890625 C90.15541699 268.98938347 94.88261373 261.98861708 99.6875 254.875 C100.244375 254.07578125 100.80125 253.2765625 101.375 252.453125 C109.79795284 239.54403423 117.6875 220.5172938 117.6875 204.875 C116.46232666 204.86041748 115.23715332 204.84583496 113.97485352 204.83081055 C109.39546661 204.77249702 104.81655452 204.69526781 100.23754883 204.61254883 C98.26204174 204.5794542 96.28644361 204.55137496 94.31079102 204.52856445 C91.45810428 204.49473244 88.60624035 204.4424043 85.75390625 204.38671875 C84.88165909 204.38032883 84.00941193 204.3739389 83.11073303 204.36735535 C76.92633842 204.2216566 69.92045029 203.68577518 65.05885315 199.45903015 C60.86760853 194.61778422 60.39220108 190.52031719 60.47265625 184.37890625 C60.87561712 179.68258053 62.66508732 176.89741268 65.9375 173.625 C72.1172879 169.6924077 78.43926702 169.55411634 85.55859375 169.4609375 C86.94208763 169.43188828 86.94208763 169.43188828 88.35353088 169.4022522 C91.27726211 169.3428388 94.20103353 169.29622491 97.125 169.25 C99.1165529 169.21178498 101.1080899 169.17273123 103.09960938 169.1328125 C107.96210923 169.03716896 112.82468638 168.95299779 117.6875 168.875 C116.66933934 161.40152792 115.54095816 154.19841851 113.0625 147.0625 C112.80380127 146.30751221 112.54510254 145.55252441 112.27856445 144.7746582 C105.70163929 126.24039132 95.28119509 110.97744116 81.6875 96.875 C81.03265625 96.15699219 80.3778125 95.43898437 79.703125 94.69921875 C73.80427885 88.40963707 66.82633693 83.64030022 59.6875 78.875 C58.75292969 78.24464844 57.81835938 77.61429688 56.85546875 76.96484375 C43.75149892 68.73502579 25.39520556 60.875 9.6875 60.875 C9.67291748 62.10017334 9.65833496 63.32534668 9.64331055 64.58764648 C9.58499702 69.16703339 9.50776781 73.74594548 9.42504883 78.32495117 C9.3919542 80.30045826 9.36387496 82.27605639 9.34106445 84.25170898 C9.30723244 87.10439572 9.2549043 89.95625965 9.19921875 92.80859375 C9.19282883 93.68084091 9.1864389 94.55308807 9.17985535 95.45176697 C9.0341566 101.63616158 8.49827518 108.64204971 4.27153015 113.50364685 C-0.56971578 117.69489147 -4.66718281 118.17029892 -10.80859375 118.08984375 C-15.50491947 117.68688288 -18.29008732 115.89741268 -21.5625 112.625 C-25.4950923 106.4452121 -25.63338366 100.12323298 -25.7265625 93.00390625 C-25.74592865 92.081577 -25.7652948 91.15924774 -25.7852478 90.20896912 C-25.8446612 87.28523789 -25.89127509 84.36146647 -25.9375 81.4375 C-25.97571502 79.4459471 -26.01476877 77.4544101 -26.0546875 75.46289062 C-26.15033104 70.60039077 -26.23450221 65.73781362 -26.3125 60.875 C-53.71371005 60.875 -81.16198275 79.83055813 -99.875 98.0625 Z " fill="#000000" transform="translate(264.3125,69.125)"/>
<path d="M0 0 C8.01664814 4.1744348 12.20891599 9.68924797 15.0625 18.25 C15.92860557 27.70616903 14.26907558 34.02446942 9.375 42 C2.73896647 48.45668127 -4.74695177 50.61172471 -13.79296875 50.53515625 C-20.30657111 49.94448175 -26.37794636 46.93620791 -30.9375 42.25 C-36.06111704 34.24434838 -37.80248511 27.78853448 -36.9375 18.25 C-34.79852219 10.83561578 -31.11181004 5.33714746 -24.375 1.5 C-16.69479167 -2.59265739 -8.15918685 -3.49679437 0 0 Z " fill="#000000" transform="translate(266.9375,231.75)"/>
</svg>
