<?xml version="1.0" encoding="UTF-8"?>
<svg version="1.1" xmlns="http://www.w3.org/2000/svg" width="200" height="200">
<path d="M0 0 C0 59.4 0 118.8 0 180 C-59.4 180 -118.8 180 -180 180 C-173.24996107 172.12495458 -173.24996107 172.12495458 -170.56270123 169.43686008 C-169.9487442 168.82029531 -169.33478717 168.20373054 -168.70222539 167.56848198 C-167.71976306 166.58936573 -167.71976306 166.58936573 -166.717453 165.59046936 C-165.65113969 164.52181606 -165.65113969 164.52181606 -164.5632847 163.43157381 C-162.19584052 161.06016119 -159.8248624 158.69231491 -157.45385742 156.32446289 C-155.74997591 154.61922556 -154.04630703 152.91377574 -152.34283447 151.20812988 C-148.20634501 147.06756143 -144.06752709 142.92932977 -139.92754557 138.79225362 C-136.56487433 135.43184438 -133.2031848 132.07045596 -129.84218788 128.70837212 C-129.36315205 128.22918305 -128.88411622 127.74999399 -128.39056415 127.25628404 C-127.41737585 126.28277601 -126.44418979 125.30926574 -125.47100595 124.33575325 C-116.36038999 115.22229027 -107.24671904 106.11188732 -98.13199029 97.00253796 C-90.30540912 89.18043272 -82.48146553 81.35569731 -74.65942383 73.52905273 C-65.57247891 64.4367631 -56.483923 55.34608886 -47.39276773 46.2580089 C-46.42475415 45.29031387 -45.45674266 44.32261676 -44.48873329 43.35491753 C-44.01245285 42.87879136 -43.53617242 42.4026652 -43.04545924 41.91211097 C-39.68312641 38.55064298 -36.32195821 35.18801314 -32.96123314 31.82493782 C-28.44677874 27.30739562 -23.92969592 22.7924926 -19.41079712 18.27939606 C-17.74779088 16.61771839 -16.0856467 14.95517749 -14.42440224 13.29173851 C-12.16776999 11.03239882 -9.90812106 8.77612182 -7.64762878 6.52064514 C-6.64843604 5.51810632 -6.64843604 5.51810632 -5.62905759 4.49531418 C-1.1141505 0 -1.1141505 0 0 0 Z " fill="#000000" transform="translate(190,10)"/>
</svg>
