<?xml version="1.0" encoding="UTF-8"?>
<svg version="1.1" xmlns="http://www.w3.org/2000/svg" width="256" height="256">
<path d="M0 0 C0 32.01 0 64.02 0 97 C-32.01 97 -64.02 97 -97 97 C-90.25 89.125 -90.25 89.125 -87.10595703 85.99243164 C-86.4056839 85.29223404 -85.70541077 84.59203644 -84.98391724 83.87062073 C-84.24930267 83.14116745 -83.51468811 82.41171417 -82.7578125 81.66015625 C-81.98944061 80.89319931 -81.22106873 80.12624237 -80.42941284 79.33604431 C-77.99696491 76.9091526 -75.56104678 74.48577873 -73.125 72.0625 C-71.46591448 70.40843514 -69.80705798 68.75414055 -68.1484375 67.09960938 C-64.10160291 63.06374567 -60.05192047 59.03075723 -56 55 C-70.43149088 40.16525832 -92.09286701 34.22111997 -112.3125 33.5625 C-133.5507968 34.1036031 -152.30079652 41.06940055 -169 54 C-169.80953125 54.62519531 -170.6190625 55.25039062 -171.453125 55.89453125 C-182.36062869 64.95233588 -189.14655163 76.3149408 -195 89 C-195.99356991 91.00320215 -196.9915803 93.00423205 -198 95 C-205.21930632 93.55613874 -212.05110733 91.42211826 -219 89 C-218.43596529 83.80282303 -216.73871325 79.88542465 -214.375 75.3125 C-214.0138208 74.60697998 -213.6526416 73.90145996 -213.28051758 73.17456055 C-199.47275255 46.57408454 -177.3538601 25.59555562 -148.50439453 16.18603516 C-116.12177726 6.58044646 -84.94097798 10.05874639 -55.30517578 25.87988281 C-49.72063968 28.99052162 -44.78713346 32.76479487 -40 37 C-36.86306317 35.61017032 -34.75448249 33.9950795 -32.34887695 31.56005859 C-31.65168045 30.85948334 -30.95448395 30.15890808 -30.23616028 29.43710327 C-29.4943602 28.68184357 -28.75256012 27.92658386 -27.98828125 27.1484375 C-27.21945114 26.37440582 -26.45062103 25.60037415 -25.65849304 24.80288696 C-23.20503663 22.33162083 -20.75837486 19.85376824 -18.3125 17.375 C-15.85504409 14.8899807 -13.39616699 12.40641066 -10.93437195 9.9256897 C-9.40250704 8.38150864 -7.87332201 6.83466386 -6.34700012 5.28500366 C-5.31539009 4.24359726 -5.31539009 4.24359726 -4.26293945 3.18115234 C-3.65545364 2.56541351 -3.04796783 1.94967468 -2.42207336 1.3152771 C-1 0 -1 0 0 0 Z " fill="#000000" transform="translate(235,74)"/>
</svg>
