<?xml version="1.0" encoding="UTF-8"?>
<svg version="1.1" xmlns="http://www.w3.org/2000/svg" width="200" height="200">
<path d="M0 0 C4.15649822 0.5218169 6.1041415 2.72209367 9.00544739 5.61103821 C9.74054638 6.33700055 9.74054638 6.33700055 10.49049586 7.07762879 C12.13214381 8.7026161 13.76286178 10.33814492 15.39379883 11.97387695 C16.56780393 13.1405437 17.74243082 14.30658505 18.91763306 15.4720459 C22.10837469 18.6405429 25.28937964 21.81864714 28.46806931 24.99922967 C31.11984474 27.65112461 33.7759442 30.2986679 36.43194598 32.94632882 C42.69469322 39.18983287 48.94922083 45.44148979 55.19897461 51.69799805 C61.6545974 58.16026887 68.12485191 64.60762295 74.60230047 71.04801017 C80.15778442 76.57285376 85.70361372 82.10726005 91.24184817 87.64939469 C94.55214943 90.96176861 97.86615838 94.27021291 101.18967628 97.56933022 C104.31243865 100.6699205 107.42303045 103.78221558 110.52450943 106.90409088 C111.66708573 108.05009371 112.81397847 109.19181089 113.96536446 110.32896233 C115.5318548 111.87740904 117.08227593 113.44031949 118.62947083 115.00801086 C119.50274426 115.88057179 120.3760177 116.75313272 121.27575397 117.6521349 C123 120 123 120 122.77315807 122.31199932 C122.39044483 123.14755966 122.39044483 123.14755966 122 124 C117.84350178 123.4781831 115.8958585 121.27790633 112.99455261 118.38896179 C112.50448662 117.9049869 112.01442062 117.42101201 111.50950414 116.92237121 C109.86785619 115.2973839 108.23713822 113.66185508 106.60620117 112.02612305 C105.43219607 110.8594563 104.25756918 109.69341495 103.08236694 108.5279541 C99.89162531 105.3594571 96.71062036 102.18135286 93.53193069 99.00077033 C90.88015526 96.34887539 88.2240558 93.7013321 85.56805402 91.05367118 C79.30530678 84.81016713 73.05077917 78.55851021 66.80102539 72.30200195 C60.3454026 65.83973113 53.87514809 59.39237705 47.39769953 52.95198983 C41.84221558 47.42714624 36.29638628 41.89273995 30.75815183 36.35060531 C27.44785057 33.03823139 24.13384162 29.72978709 20.81032372 26.43066978 C17.68756135 23.3300795 14.57696955 20.21778442 11.47549057 17.09590912 C10.33291427 15.94990629 9.18602153 14.80818911 8.03463554 13.67103767 C6.4681452 12.12259096 4.91772407 10.55968051 3.37052917 8.99198914 C2.49725574 8.11942821 1.6239823 7.24686728 0.72424603 6.3478651 C-1 4 -1 4 -0.77315807 1.68800068 C-0.51801591 1.13096045 -0.26287374 0.57392023 0 0 Z " fill="#000000" transform="translate(39,38)"/>
</svg>
