<?xml version="1.0" encoding="UTF-8"?>
<svg version="1.1" xmlns="http://www.w3.org/2000/svg" width="1024" height="1024">
<path d="M0 0 C11.88 0 23.76 0 36 0 C36 20.79 36 41.58 36 63 C62.07 63 88.14 63 115 63 C115 74.88 115 86.76 115 99 C88.93 99 62.86 99 36 99 C36 119.46 36 139.92 36 161 C39.3 161.66 42.6 162.32 46 163 C69.44925224 170.77883848 85.76394694 187.53341493 97 209 C108.52158123 232.43229075 113.07366439 259.34825352 113.203125 285.30078125 C113.20991272 286.24830765 113.21670044 287.19583405 113.22369385 288.17207336 C113.24055689 291.21891622 113.246885 294.26561357 113.25 297.3125 C113.25233643 298.35114197 113.25467285 299.38978394 113.25708008 300.4598999 C113.27105725 316.95074055 112.48160011 333.07290999 110.27539062 349.42431641 C110.00305753 351.97140341 109.95145878 354.44060615 110 357 C110.52207031 356.34515625 111.04414062 355.6903125 111.58203125 355.015625 C125.32159263 337.97953138 140.5834147 321.31994226 158 308 C159.26133451 306.99985436 160.52167459 305.99845388 161.78125 304.99609375 C192.59082364 280.69512431 227.77746106 263.58077066 266.3125 255.6875 C267.38371094 255.46658691 267.38371094 255.46658691 268.4765625 255.24121094 C282.89565332 252.50721814 297.4138619 251.61551179 312.0625 251.6875 C312.86292725 251.68965515 313.66335449 251.6918103 314.48803711 251.69403076 C369.19335822 251.92854411 429.23938565 266.30170637 469 306 C491.50034161 330.71811722 499.20823923 362.28886976 498.14794922 395.00488281 C496.3310229 431.78714687 483.32678988 466.90780402 468 500 C467.24177367 501.66778067 466.48393897 503.33573946 465.7265625 505.00390625 C460.54130413 516.30194336 454.6875917 527.19932671 448.63867188 538.05517578 C446.94250133 541.10332969 445.25987551 544.15871351 443.578125 547.21484375 C436.58170635 559.87809794 429.29212289 572.30116615 421.56152344 584.52978516 C420.02693755 586.95738679 418.50079567 589.39010664 416.9765625 591.82421875 C404.68637862 611.41554188 391.92557161 630.70156186 379.1965332 650.0090332 C378.67441757 650.80153473 378.15230194 651.59403625 377.61436462 652.41055298 C376.65210226 653.87111828 375.68933461 655.33135094 374.72584534 656.79110718 C373.78263401 658.22317797 372.85231786 659.66380847 371.93372154 661.11179161 C370.45487934 663.32059178 368.93866934 665.38711487 367.31272984 667.48222733 C358.77927693 678.90085764 357.44295489 687.90593116 357.72290039 701.89672852 C357.72268861 703.93549701 357.71755985 705.97426991 357.70794678 708.01301575 C357.69786573 712.36735607 357.7220347 716.71960329 357.7740345 721.07364082 C357.85624084 727.96227763 357.86095922 734.8497076 357.85630798 741.73875427 C357.85812465 752.63011908 357.91228089 763.52049472 357.9885754 774.41156858 C358.12383655 793.93408448 358.1739923 813.45689305 358.19801325 832.97983307 C358.20857661 839.82461886 358.24361332 846.66871794 358.29917634 853.51328194 C358.33049877 857.76704512 358.34586979 862.02076808 358.35760498 866.27462578 C358.36663818 868.24348324 358.38262644 870.21232321 358.40615654 872.18106079 C358.43754357 874.87294422 358.44413255 877.5638332 358.44496155 880.25587463 C358.46022528 881.03029311 358.47548902 881.80471159 358.49121529 882.6025973 C358.44732673 889.47200453 356.213118 894.62580062 351.53125 899.6484375 C346.72829859 903.23867363 340.99512171 905.33325308 335.5 907.625 C334.88808807 907.88289307 334.27617615 908.14078613 333.64572144 908.40649414 C284.47631089 929.11673502 233.32561475 943.8756846 181 954 C180.2675708 954.14179687 179.5351416 954.28359375 178.78051758 954.4296875 C145.23808907 960.88116909 111.10522929 965.08113092 77 967 C76.32683746 967.04130035 75.65367493 967.08260071 74.96011353 967.12515259 C58.12762298 968.14492168 41.29449439 968.20156036 24.4375 968.1875 C23.7197364 968.18723312 23.00197281 968.18696625 22.2624588 968.18669128 C-0.20852932 968.17621599 -22.6016865 967.96276195 -45 966 C-45.75770691 965.93447937 -46.51541382 965.86895874 -47.29608154 965.80145264 C-125.74356487 958.95943761 -202.19689252 942.47615762 -298 908 C-299.35448242 907.48397217 -299.35448242 907.48397217 -300.73632812 906.95751953 C-309.65061284 903.51143916 -316.57600533 900.68663388 -321.12087536 891.81107044 C-322.28976149 888.07346475 -322.24463795 884.52106013 -322.19099426 880.64787292 C-322.18592433 879.39045531 -322.18592433 879.39045531 -322.18075198 878.10763532 C-322.16732127 875.29972785 -322.13975861 872.49213129 -322.11254883 869.68432617 C-322.10056362 867.67017193 -322.08964445 865.65601111 -322.07971191 863.6418457 C-322.05731642 859.30280294 -322.0298728 854.9638305 -321.99930763 850.62483788 C-321.95347652 843.7520461 -321.93453463 836.8793484 -321.92228699 830.00642395 C-321.9201206 828.84541914 -321.91795422 827.68441432 -321.91572219 826.48822755 C-321.91138683 824.1138606 -321.90713439 821.7394935 -321.90296304 819.36512625 C-321.87421541 803.36714619 -321.82996026 787.36984287 -321.7019043 771.37231445 C-321.61570226 760.57864982 -321.57595977 749.78590114 -321.58915728 738.99188596 C-321.59431541 733.28516617 -321.57629308 727.58068787 -321.50144386 721.87441063 C-321.43129398 716.49639417 -321.42288062 711.12166844 -321.45978546 705.7433548 C-321.46261094 703.78103914 -321.44359557 701.81853709 -321.39986992 699.85670662 C-321.11971538 686.53669973 -323.57132896 679.02729882 -332.83182812 669.26756763 C-333.37982362 668.70970747 -333.92781913 668.1518473 -334.49242055 667.57708228 C-336.48330099 665.49441774 -338.18698322 663.24556116 -339.875 660.9140625 C-340.39755371 660.20161377 -340.92010742 659.48916504 -341.45849609 658.75512695 C-342.22154053 657.70071411 -342.22154053 657.70071411 -343 656.625 C-343.5770166 655.83375732 -344.1540332 655.04251465 -344.74853516 654.22729492 C-345.93094939 652.60425646 -347.11148919 650.97985059 -348.29003906 649.35400391 C-349.92140719 647.10819416 -351.56441422 644.87143081 -353.2109375 642.63671875 C-404.88885759 572.20670881 -462.75757169 480.78934004 -462.3125 390.1875 C-462.31034485 389.39563293 -462.3081897 388.60376587 -462.30596924 387.78790283 C-462.25592936 376.32761288 -462.07951155 365.11588394 -459 354 C-458.69400879 352.89350098 -458.69400879 352.89350098 -458.38183594 351.76464844 C-449.05440019 319.30191354 -428.42221003 294.54066514 -399.10449219 277.92578125 C-343.22399439 247.8384993 -270.81537406 246.63174645 -211 264 C-176.21206755 274.81701106 -144.61527527 293.48059151 -117.48291016 317.68017578 C-116.16943919 318.84919521 -114.84158998 320.00201557 -113.51171875 321.15234375 C-101.78924808 331.4168937 -90.29251602 342.45893622 -81 355 C-81.63952143 346.9239383 -82.64054357 338.9198237 -83.72839355 330.89315796 C-85.29199521 319.27489493 -86.72264569 307.733293 -87 296 C-87.02046387 295.31856934 -87.04092773 294.63713867 -87.06201172 293.93505859 C-88.14894238 254.52708487 -81.10009179 214.37376786 -53.3125 184.8125 C-38.68342602 170.66120293 -20.06266898 162.823879 0 161 C0 140.54 0 120.08 0 99 C-26.07 99 -52.14 99 -79 99 C-79 87.12 -79 75.24 -79 63 C-52.93 63 -26.86 63 0 63 C0 42.21 0 21.42 0 0 Z " fill="#010101" transform="translate(494,45)"/>
<path d="M0 0 C0.91389496 -0.00084595 1.82778992 -0.00169189 2.76937866 -0.00256348 C26.33383207 0.04331896 48.81480214 3.77682898 71.375 10.5625 C72.27814941 10.81854004 73.18129883 11.07458008 74.11181641 11.33837891 C100.38081084 18.86065391 125.79194508 32.77197922 140.2734375 56.69921875 C155.0736421 84.08271967 151.20834243 117.42871895 142.75 146.3125 C141.6775929 149.74770417 140.53605025 153.15634523 139.375 156.5625 C138.88483398 158.02187988 138.88483398 158.02187988 138.38476562 159.51074219 C128.90029622 187.39438099 115.97937986 214.01969103 101.375 239.5625 C100.80990723 240.56087891 100.24481445 241.55925781 99.66259766 242.58789062 C85.93548634 266.8310495 71.28315661 290.43646703 55.93457031 313.68261719 C52.95738745 318.19279402 49.99069173 322.70985006 47.0234375 327.2265625 C28.25336637 355.79049431 28.25336637 355.79049431 20.375 367.5625 C14.12202594 366.99743482 8.35176108 365.93547814 2.3125 364.25 C0.62782275 363.79346345 -1.05707655 363.33774559 -2.7421875 362.8828125 C-3.57073242 362.65754883 -4.39927734 362.43228516 -5.25292969 362.20019531 C-9.24819077 361.12612965 -13.26129814 360.12869675 -17.27905273 359.14208984 C-20.97723346 358.23183661 -24.66258051 357.28852981 -28.33984375 356.296875 C-47.28155276 351.27447891 -66.53124596 347.74303402 -85.7706604 344.07368469 C-91.07093833 343.06153713 -96.35961776 342.00732479 -101.64453125 340.91796875 C-108.64635993 339.50931968 -115.67010932 338.48897669 -122.75 337.5625 C-125.31909864 337.21940996 -127.88810889 336.87565747 -130.45703125 336.53125 C-131.69275879 336.36625 -132.92848633 336.20125 -134.20166016 336.03125 C-137.05992868 335.63987391 -139.91112942 335.22432885 -142.76171875 334.78125 C-159.61620143 332.17302669 -176.6049403 330.66391499 -193.57788086 329.05004883 C-196.94529073 328.72876672 -200.31000848 328.38848099 -203.67407227 328.03393555 C-217.29021719 326.62421743 -230.88526271 325.98272602 -244.5625 325.5 C-247.78360662 325.3838131 -251.00460985 325.26580103 -254.22547913 325.14320374 C-256.20534574 325.06804073 -258.18535689 324.99655998 -260.16551208 324.9294281 C-264.73504392 324.75790667 -269.1266643 324.46272716 -273.625 323.5625 C-273.01289724 316.98904864 -271.89192992 310.73308839 -270.375 304.3125 C-270.15247559 303.35722412 -269.92995117 302.40194824 -269.70068359 301.41772461 C-269.23783491 299.43471646 -268.77281915 297.45221291 -268.30566406 295.47021484 C-267.66645439 292.73958817 -267.04523286 290.00557385 -266.4296875 287.26953125 C-263.4478662 274.16194177 -259.71062994 261.3653674 -255.625 248.5625 C-255.30047852 247.52915527 -254.97595703 246.49581055 -254.64160156 245.43115234 C-235.34920882 184.22029347 -205.75714318 124.25739178 -161.80859375 76.93359375 C-159.91234197 74.87451534 -158.10775216 72.77140173 -156.3125 70.625 C-133.77712438 44.84033767 -102.99621834 25.58006024 -71.625 12.5625 C-70.66335938 12.16289062 -69.70171875 11.76328125 -68.7109375 11.3515625 C-46.76207001 2.85741873 -23.39556498 -0.06762112 0 0 Z " fill="#FEFEFE" transform="translate(806.625,332.4375)"/>
<path d="M0 0 C0.91168945 0.1453418 1.82337891 0.29068359 2.76269531 0.44042969 C47.98614245 7.82776161 90.47709211 30.41173923 122.37109375 63.37109375 C124.08042348 65.14686181 124.08042348 65.14686181 126.5625 67 C129.39318732 69.32261524 131.62457681 71.90231146 133.99609375 74.68359375 C136.19054304 77.22025735 138.46674497 79.66805837 140.75 82.125 C190.23179896 136.54002967 222.63617875 210.49728678 240.5 281.3125 C241.0945118 283.64597105 241.68956736 285.97930363 242.28515625 288.3125 C242.57277832 289.44171875 242.86040039 290.5709375 243.15673828 291.734375 C243.93450517 294.74636398 244.73817987 297.74938775 245.55859375 300.75 C245.91050781 302.04490356 245.91050781 302.04490356 246.26953125 303.3659668 C246.69982288 304.94197279 247.13560043 306.51649638 247.578125 308.08911133 C248.68946356 312.18811728 249.08110497 315.77020747 249 320 C239.84782409 320.73930979 230.73915473 321.17440111 221.55941772 321.38760376 C193.61980434 322.06453377 165.94770058 324.41858086 138.21069336 327.73571777 C136.04233393 327.9949391 133.87372962 328.2520241 131.70507812 328.50878906 C78.50750392 334.82988811 24.59219849 343.90618795 -26.62109375 360.05859375 C-27.68457031 360.39358887 -28.74804688 360.72858398 -29.84375 361.07373047 C-31.85002765 361.71494137 -33.85174433 362.37067397 -35.84765625 363.04345703 C-36.73195312 363.32946777 -37.61625 363.61547852 -38.52734375 363.91015625 C-39.29812256 364.16933838 -40.06890137 364.42852051 -40.86303711 364.69555664 C-43.61343156 365.0873928 -44.71393738 364.53481341 -47 363 C-48.36523438 361.55810547 -48.36523438 361.55810547 -49.59375 359.8671875 C-50.06039062 359.23433838 -50.52703125 358.60148926 -51.0078125 357.94946289 C-51.50023437 357.26489014 -51.99265625 356.58031738 -52.5 355.875 C-53.57261462 354.41253884 -54.64553984 352.95030544 -55.71875 351.48828125 C-56.26402344 350.7401416 -56.80929688 349.99200195 -57.37109375 349.22119141 C-59.39153007 346.46610603 -61.4526504 343.74341023 -63.51708984 341.02124023 C-102.2617044 289.844414 -137.65458552 233.21908352 -159.12744141 172.44726562 C-159.88488676 170.32285817 -160.67069297 168.21423164 -161.48046875 166.109375 C-174.37766491 131.98140977 -180.93425266 90.11726754 -165.82373047 55.76464844 C-155.22961883 33.0692605 -133.60548076 18.88911218 -110.875 10.3125 C-76.34773749 -2.09551804 -36.2931319 -6.14285265 0 0 Z " fill="#FEFEFE" transform="translate(241,336)"/>
<path d="M0 0 C1.17477905 -0.00088371 1.17477905 -0.00088371 2.37329102 -0.00178528 C44.28442645 -0.02392745 85.85189882 2.33451931 127.50744629 7.00256348 C130.41924297 7.32384222 133.33289469 7.62573742 136.24676514 7.92752075 C162.52580846 10.66540962 188.42492829 15.35137363 214.37611389 20.24266052 C217.75952904 20.8799199 221.14452131 21.50394615 224.53515625 22.1015625 C235.45378455 24.05253997 246.27962749 26.41628742 257.09298706 28.87640381 C258.68363585 29.23781393 260.27484486 29.59677165 261.86672974 29.95269775 C278.7046071 33.7290834 295.09843636 38.56674773 311.75 43.25 C311.75 68.33 311.75 93.41 311.75 119.25 C298.42496112 117.02916019 298.42496112 117.02916019 293.5625 115.5 C282.74102564 112.29407863 271.74002091 109.80426088 260.75 107.25 C259.86860352 107.04262207 258.98720703 106.83524414 258.07910156 106.62158203 C244.07936311 103.3491636 229.95393324 100.75975643 215.8125 98.1875 C214.90108246 98.02155334 213.98966492 97.85560669 213.05062866 97.68463135 C206.62098281 96.51728743 200.18716226 95.37512678 193.75 94.25 C192.78695953 94.08108246 191.82391907 93.91216492 190.83169556 93.73812866 C175.87021109 91.12937187 160.89148006 88.98959208 145.8125 87.1875 C144.75117859 87.05960083 143.68985718 86.93170166 142.59637451 86.79992676 C124.33916592 84.60522766 106.09503508 82.55038161 87.75 81.25 C87.05590027 81.19886047 86.36180054 81.14772095 85.64666748 81.09503174 C58.10616708 79.07704206 30.53596575 79.06616605 2.9375 79.0625 C1.61014265 79.06171637 1.61014265 79.06171637 0.25597 79.0609169 C-27.36103937 79.04593886 -55.00600781 79.13586396 -82.5625 81.1875 C-83.76503418 81.27394775 -84.96756836 81.36039551 -86.20654297 81.44946289 C-94.47946914 82.06527053 -102.68451518 82.90327061 -110.91064453 83.96582031 C-113.65492075 84.29918887 -116.40235823 84.5847589 -119.15234375 84.8671875 C-135.02499139 86.51160283 -150.74357198 88.7740078 -166.48857117 91.32987976 C-170.60853802 91.99582275 -174.73227631 92.62147095 -178.86328125 93.21484375 C-210.6047187 97.79783204 -242.37139803 104.60934999 -273.25 113.25 C-275.64697726 113.91975873 -278.04405977 114.58913231 -280.44140625 115.25756836 C-282.0202078 115.69867614 -283.59837523 116.14206229 -285.17578125 116.58813477 C-286.25279297 116.89062134 -286.25279297 116.89062134 -287.3515625 117.19921875 C-287.98400879 117.37799561 -288.61645508 117.55677246 -289.26806641 117.7409668 C-291.57426641 118.3332835 -293.9151887 118.78303774 -296.25 119.25 C-296.25 94.17 -296.25 69.09 -296.25 43.25 C-287.23174231 39.86815336 -287.23174231 39.86815336 -282.984375 38.671875 C-282.0267627 38.40173584 -281.06915039 38.13159668 -280.08251953 37.85327148 C-279.06528809 37.57169189 -278.04805664 37.2901123 -277 37 C-275.91444824 36.69843994 -274.82889648 36.39687988 -273.71044922 36.08618164 C-242.16209361 27.40329256 -210.37141077 20.34267864 -178.11621094 14.90527344 C-174.83770228 14.34960804 -171.56307598 13.77667938 -168.2890625 13.1953125 C-138.18992383 7.97533315 -107.58473699 4.62401336 -77.125 2.4375 C-76.33319336 2.38028778 -75.54138672 2.32307556 -74.72558594 2.26412964 C-69.23629916 1.87548272 -63.74503204 1.54577617 -58.25 1.25 C-57.39188721 1.20300964 -56.53377441 1.15601929 -55.6496582 1.10760498 C-37.1063691 0.12607364 -18.56401228 0.00643168 0 0 Z " fill="#FEFEFE" transform="translate(504.25,690.75)"/>
<path d="M0 0 C0.95345684 -0.00144516 1.90691368 -0.00289032 2.88926315 -0.00437927 C34.90109646 -0.04344687 66.56238283 0.89981946 98.44238281 4.03070068 C101.27482708 4.30880113 104.10796309 4.57847962 106.94140625 4.84619141 C117.74731058 5.87509807 128.533835 7.03023889 139.3125 8.3125 C140.47974609 8.45042969 141.64699219 8.58835937 142.84960938 8.73046875 C154.16154034 10.0865578 165.38811067 11.71746578 176.58789062 13.80859375 C179.92627633 14.42601562 183.26773602 15.02543578 186.609375 15.625 C193.03843462 16.77919384 199.46424604 17.95034807 205.88809204 19.13320923 C209.29696512 19.76065554 212.70645975 20.38316407 216.11816406 20.99511719 C233.08039212 24.03985305 249.81939853 27.74590978 266.5625 31.8125 C267.5057312 32.03988861 268.4489624 32.26727722 269.42077637 32.5015564 C272.18357045 33.17018922 274.94367054 33.8489778 277.703125 34.53125 C278.4909436 34.72185501 279.27876221 34.91246002 280.0904541 35.10884094 C289.32610106 37.42315466 298.17922379 40.42830751 307.3125 43.3125 C307.3125 63.1125 307.3125 82.9125 307.3125 103.3125 C302.0325 101.9925 296.7525 100.6725 291.3125 99.3125 C263.58586367 92.45029642 235.85027179 86.10337748 207.67993164 81.31591797 C206.98285599 81.19660919 206.28578033 81.07730042 205.56758118 80.95437622 C203.67802654 80.6317669 201.78776806 80.31328769 199.89746094 79.99511719 C197.32683628 79.50564112 194.85494784 78.95876931 192.32885742 78.30322266 C188.51754898 77.32616128 184.71672971 76.70284893 180.81640625 76.1640625 C180.11871628 76.06675842 179.42102631 75.96945435 178.70219421 75.86920166 C176.4271149 75.55366381 174.15116549 75.24509796 171.875 74.9375 C171.08516724 74.82956116 170.29533447 74.72162231 169.48156738 74.6104126 C152.78023999 72.32808494 136.06472865 70.18654144 119.3125 68.3125 C118.09433594 68.17602051 116.87617187 68.03954102 115.62109375 67.89892578 C106.19723607 66.87089168 96.76332111 66.04132261 87.3125 65.3125 C86.44117432 65.2446228 85.56984863 65.17674561 84.67211914 65.10681152 C-6.96285644 58.05641505 -99.47045975 62.17076329 -255.6875 91.3125 C-256.86103027 91.59512695 -258.03456055 91.87775391 -259.24365234 92.16894531 C-270.30371784 94.85086121 -281.31841996 97.66570321 -292.24829102 100.84057617 C-295.16680571 101.6782562 -297.63304306 102.3125 -300.6875 102.3125 C-300.6875 82.5125 -300.6875 62.7125 -300.6875 42.3125 C-269.72278913 33.46543975 -239.15158461 25.82579813 -207.6875 19.3125 C-206.94510071 19.1580542 -206.20270142 19.0036084 -205.43780518 18.84448242 C-166.01669628 10.64771041 -126.14551095 6.09237901 -86.0625 2.625 C-85.03746872 2.53372833 -85.03746872 2.53372833 -83.99172974 2.44061279 C-56.07241485 -0.0202792 -28.00509408 0.03345392 0 0 Z " fill="#FEFEFE" transform="translate(508.6875,803.6875)"/>
<path d="M0 0 C18.5219773 13.53023874 25.02555302 38.62012055 28.5456543 60.14819336 C33.91842882 96.7210462 29.29545462 134.65370553 22.203125 170.609375 C21.85668993 172.43723842 21.51154981 174.26534796 21.16796875 176.09375 C13.01872677 218.89673191 -1.71563697 260.82555842 -21.796875 299.484375 C-22.25376709 300.36464355 -22.71065918 301.24491211 -23.18139648 302.15185547 C-25.10848597 305.77494258 -26.75497986 308.80526489 -29.796875 311.609375 C-47.30792148 282.96874801 -60.38813669 252.31502166 -71.66943359 220.74804688 C-72.71965678 217.82434195 -73.79561325 214.9115766 -74.87890625 212 C-83.94997014 187.26556792 -90.18896925 161.65019793 -94.31347656 135.65234375 C-94.76638609 132.80130115 -95.24218644 129.95521459 -95.7265625 127.109375 C-96.00112513 125.46372899 -96.27464445 123.8179084 -96.546875 122.171875 C-96.66272949 121.4816626 -96.77858398 120.7914502 -96.89794922 120.08032227 C-102.37427555 85.43443128 -101.99159726 44.13150661 -82.09765625 14.0390625 C-74.6379957 3.81135181 -63.99877049 -3.13790977 -51.796875 -6.390625 C-50.83056152 -6.65117676 -50.83056152 -6.65117676 -49.84472656 -6.91699219 C-32.95530839 -11.11502657 -14.71089969 -9.58581206 0 0 Z " fill="#FEFEFE" transform="translate(541.796875,248.390625)"/>
<path d="M0 0 C34.18812137 -0.4675796 68.08728534 0.33208089 102.17163086 3.04034424 C103.13004883 3.11531128 104.0884668 3.19027832 105.07592773 3.26751709 C139.66687444 5.9812481 173.81701752 10.40630644 208.04663086 16.04034424 C209.03489868 16.2018396 210.0231665 16.36333496 211.04138184 16.52972412 C224.67233814 18.76883132 238.15497877 21.4552019 251.63360596 24.47546387 C255.18290931 25.26542136 258.73887458 26.01981734 262.29663086 26.77081299 C264.03299805 27.1391626 264.03299805 27.1391626 265.80444336 27.51495361 C268.11142878 28.0033815 270.41873737 28.49028478 272.72631836 28.97589111 C278.27319433 30.15507393 283.74878781 31.37723394 289.17163086 33.04034424 C285.59623625 36.61573885 280.38508521 37.61021703 275.67163086 39.22784424 C273.93429687 39.8267749 273.93429687 39.8267749 272.16186523 40.43780518 C260.90921654 44.24644073 249.51086343 47.33021245 238.01196289 50.29229736 C235.5613298 50.93771079 233.12896746 51.6187963 230.69897461 52.33721924 C217.31198828 56.29192441 203.65210819 59.01420514 189.99116516 61.83265686 C186.10488367 62.63512588 182.22361839 63.45619895 178.34741211 64.30596924 C170.44758706 66.0353883 162.61944253 67.5221523 154.58178711 68.48565674 C151.20289301 68.893058 147.84370505 69.38821519 144.48022461 69.90753174 C136.72655664 71.0865749 128.95647649 72.09449268 121.17163086 73.04034424 C120.40836487 73.13440552 119.64509888 73.2284668 118.85870361 73.32537842 C90.42615625 76.78555956 62.07652377 77.41756555 33.47089386 77.41551208 C30.778992 77.41534699 28.08710283 77.41806648 25.39520264 77.4208374 C-3.62543013 77.43131137 -32.52379975 76.46875902 -61.39086914 73.29034424 C-62.15333954 73.2083075 -62.91580994 73.12627075 -63.7013855 73.04174805 C-92.67732171 69.90393272 -121.38123681 65.39201561 -149.82836914 59.04034424 C-151.14494898 58.75156475 -152.46168578 58.4635001 -153.77856445 58.17608643 C-168.91124504 54.87197946 -183.97773718 51.46323184 -198.82836914 47.04034424 C-199.96193848 46.70744385 -201.09550781 46.37454346 -202.26342773 46.03155518 C-205.53984704 45.06915665 -208.81490632 44.10249574 -212.08859253 43.13085938 C-214.00807743 42.56120503 -215.92810107 41.99336697 -217.84814453 41.42559814 C-226.28469914 38.89692446 -234.56471126 36.07934011 -242.82836914 33.04034424 C-242.82836914 32.71034424 -242.82836914 32.38034424 -242.82836914 32.04034424 C-198.86280504 20.75409543 -154.80505569 12.91413795 -109.82836914 7.04034424 C-109.09680603 6.94388611 -108.36524292 6.84742798 -107.61151123 6.74804688 C-82.81841374 3.48743526 -57.78476451 2.36038333 -32.82836914 1.04034424 C-32.08927307 1.00060486 -31.350177 0.96086548 -30.58868408 0.91992188 C-20.39437801 0.3764371 -10.20635757 0.14558486 0 0 Z " fill="#FDFDFD" transform="translate(488.828369140625,899.9596557617188)"/>
</svg>
