<?xml version="1.0" encoding="UTF-8"?>
<svg version="1.1" xmlns="http://www.w3.org/2000/svg" width="256" height="256">
<path d="M0 0 C7.875 6.75 7.875 6.75 10.64038086 9.52685547 C11.26049545 10.14704559 11.88061005 10.76723572 12.51951599 11.40621948 C13.16147415 12.05333893 13.80343231 12.70045837 14.46484375 13.3671875 C15.14301651 14.04677521 15.82118927 14.72636292 16.51991272 15.42654419 C18.66149141 17.57367002 20.79954529 19.72426627 22.9375 21.875 C24.39885589 23.34137773 25.86044226 24.8075258 27.32226562 26.2734375 C30.88417935 29.84631 34.44293865 33.42229684 38 37 C41.55420694 35.28917104 44.55739779 33.20057572 47.75 30.875 C72.58858047 13.39284302 103.14099086 7.0042901 133.12426758 12.12939453 C152.80236595 16.02928125 171.00286569 24.68235549 186 38 C186.75539062 38.61230469 187.51078125 39.22460938 188.2890625 39.85546875 C201.98270954 51.20232469 214.00564844 68.85156214 219 86 C219 86.99 219 87.98 219 89 C215.06742084 90.36876382 211.12825633 91.71747832 207.1875 93.0625 C206.06794922 93.45244141 204.94839844 93.84238281 203.79492188 94.24414062 C202.72177734 94.60830078 201.64863281 94.97246094 200.54296875 95.34765625 C199.55321045 95.68804932 198.56345215 96.02844238 197.54370117 96.37915039 C195 97 195 97 192 96 C190.640625 93.4453125 190.640625 93.4453125 189.25 90.125 C179.17629506 67.47772723 162.43295387 52.79631602 139.71875 43.68359375 C119.23550368 36.67480618 96.80421057 37.70945341 77.17333984 46.85058594 C72.24724962 49.2666592 67.5332935 51.76157063 63.2578125 55.21484375 C61 57 61 57 59 57 C63.615179 62.402867 68.40876895 67.53662683 73.46484375 72.52734375 C74.14301651 73.20172989 74.82118927 73.87611603 75.51991272 74.57093811 C77.65666492 76.69560354 79.7966666 78.81694741 81.9375 80.9375 C84.78277721 83.75628311 87.62478661 86.57830241 90.46484375 89.40234375 C91.12097153 90.05017319 91.7770993 90.69800262 92.45310974 91.36546326 C93.98764931 92.89152706 95.49676887 94.44308684 97 96 C97 96.33 97 96.66 97 97 C64.99 97 32.98 97 0 97 C0 64.99 0 32.98 0 0 Z " fill="#000000" transform="translate(21,74)"/>
</svg>
